<svg class="diagram-root" style="background: #f5f6f6" xmlns="http://www.w3.org/2000/svg" xmlns:xlink="http://www.w3.org/1999/xlink"><style>.diagram-root { font-family: "Helvetica Neue", sans-serif; font-size: 12px; } .t { overflow: visible; } .t-bg { y: 40; fill: #fff;   } .th { fill: #005aa0;   } .tht { fill: #fff; font-size: 14px;  } .tf { fill: #323c46; overflow: visible; } .tf.pk { fill: #005aa0; font-weight: bold; } .tf.fk { font-weight: bold; } .ty { fill: #adb1b5; font-weight: normal; text-anchor: end; } .r { fill: transparent; stroke: #c3c3c3; stroke-width: 1; } .l { stroke: 1; } .i { fill: #c2c7ce; stroke: #c2c7ce; } .i.ix { fill: #afb3b6; stroke: #000; } .fa { fill: transparent; overflow: visible; } .fa .bg.hover { fill: #f7f7f7; } .c { cy: 12; r: 4; stroke: #d2d2dc; fill: #d2d2dc; } .hr { fill: transparent; stroke: #323c46; stroke-opacity: 0.035; stroke-width: 13; } .dc { stroke: #fa5a3c; fill: #fa5a3c; } .x { stroke: white; stroke-width: 1; } .hl .th { fill: #1b9bff; } .hl .tht {  } .fhl .bg { fill: #e7f4ff; } .fhls .bg {  } .r.hl { stroke: #1b9bff; } .dim { opacity: 0.25; }</style><g class="drawing-wrapper" transform="translate(12.714285714285703, 21.432857142857053) scale(1,1)"><g class="rs"><path d="M 30 87 m -1, 0 a 1,1 0 1,0 2,0 a 1,1 0 1,0 -2,0 M 30 87 m -0.5, 0 a 0.5,0.5 0 1,0 1,0 a 0.5,0.5 0 1,0 -1,0  M30 87 L30 87 18 87 M 30 93 m -1, 0 a 1,1 0 1,0 2,0 a 1,1 0 1,0 -2,0 M 30 93 m -0.5, 0 a 0.5,0.5 0 1,0 1,0 a 0.5,0.5 0 1,0 -1,0  M30 93 L30 93 23 87 30 81 M 30 81 m -1, 0 a 1,1 0 1,0 2,0 a 1,1 0 1,0 -2,0 M 30 81 m -0.5, 0 a 0.5,0.5 0 1,0 1,0 a 0.5,0.5 0 1,0 -1,0  M18 87 C -65.136 87, -52.71 554.86, -2.710000000000001 554.86 M 9.29 554.86 m -1, 0 a 1,1 0 1,0 2,0 a 1,1 0 1,0 -2,0 M 9.29 554.86 m -0.5, 0 a 0.5,0.5 0 1,0 1,0 a 0.5,0.5 0 1,0 -1,0  M9.29 554.86 L9.29 554.86 -2.710000000000001 554.86 M3.289999999999999 560.86 L3.289999999999999 560.86 3.289999999999999 548.86" id="h2289510480" class="r"></path><path d="M 507.3171428571429 308.96571428571434 m -1, 0 a 1,1 0 1,0 2,0 a 1,1 0 1,0 -2,0 M 507.3171428571429 308.96571428571434 m -0.5, 0 a 0.5,0.5 0 1,0 1,0 a 0.5,0.5 0 1,0 -1,0  M507.3171428571429 308.96571428571434 L507.3171428571429 308.96571428571434 495.3171428571429 308.96571428571434 M 507.3171428571429 314.96571428571434 m -1, 0 a 1,1 0 1,0 2,0 a 1,1 0 1,0 -2,0 M 507.3171428571429 314.96571428571434 m -0.5, 0 a 0.5,0.5 0 1,0 1,0 a 0.5,0.5 0 1,0 -1,0  M507.3171428571429 314.96571428571434 L507.3171428571429 314.96571428571434 500.3171428571429 308.96571428571434 507.3171428571429 302.96571428571434 M 507.3171428571429 302.96571428571434 m -1, 0 a 1,1 0 1,0 2,0 a 1,1 0 1,0 -2,0 M 507.3171428571429 302.96571428571434 m -0.5, 0 a 0.5,0.5 0 1,0 1,0 a 0.5,0.5 0 1,0 -1,0  M495.3171428571429 308.96571428571434 Q 424.27 308.96571428571434, 353.23 444.41 T 211.14 579.86 M 199.14 579.86 m -1, 0 a 1,1 0 1,0 2,0 a 1,1 0 1,0 -2,0 M 199.14 579.86 m -0.5, 0 a 0.5,0.5 0 1,0 1,0 a 0.5,0.5 0 1,0 -1,0  M199.14 579.86 L199.14 579.86 211.14 579.86 M205.14 585.86 L205.14 585.86 205.14 573.86" id="h597083352" class="r"></path><path d="M 495.0014285714282 65.56714285714295 m -1, 0 a 1,1 0 1,0 2,0 a 1,1 0 1,0 -2,0 M 495.0014285714282 65.56714285714295 m -0.5, 0 a 0.5,0.5 0 1,0 1,0 a 0.5,0.5 0 1,0 -1,0  M495.0014285714282 65.56714285714295 L495.0014285714282 65.56714285714295 483.0014285714282 65.56714285714295 M 495.0014285714282 71.56714285714295 m -1, 0 a 1,1 0 1,0 2,0 a 1,1 0 1,0 -2,0 M 495.0014285714282 71.56714285714295 m -0.5, 0 a 0.5,0.5 0 1,0 1,0 a 0.5,0.5 0 1,0 -1,0  M495.0014285714282 71.56714285714295 L495.0014285714282 71.56714285714295 488.0014285714282 65.56714285714295 495.0014285714282 59.567142857142954 M 495.0014285714282 59.567142857142954 m -1, 0 a 1,1 0 1,0 2,0 a 1,1 0 1,0 -2,0 M 495.0014285714282 59.567142857142954 m -0.5, 0 a 0.5,0.5 0 1,0 1,0 a 0.5,0.5 0 1,0 -1,0  M483.0014285714282 65.56714285714295 Q 415.04 65.56714285714295, 347.07 185.21 T 211.14 304.86 M 199.14 304.86 m -1, 0 a 1,1 0 1,0 2,0 a 1,1 0 1,0 -2,0 M 199.14 304.86 m -0.5, 0 a 0.5,0.5 0 1,0 1,0 a 0.5,0.5 0 1,0 -1,0  M199.14 304.86 L199.14 304.86 211.14 304.86 M205.14 310.86 L205.14 310.86 205.14 298.86" id="h1121598214" class="r"></path></g><g class="hrs"></g><g class="ts"><svg width="190.51" height="100" x="30" y="30" id="h1903237708" class="t"><rect height="40" width="190.51" class="th"></rect><text x="13" y="25" class="tht">Category</text><rect height="60" width="190.51" class="t-bg"></rect><text x="13" y="61" class="tf pk">category_id<tspan x="177.51" class="ty">Varchar(20)</tspan></text><path d="M7,14A2,2 0 0,1 5,12A2,2 0 0,1 7,10A2,2 0 0,1 9,12A2,2 0 0,1 7,14M12.65,10C11.83,7.67 9.61,6 7, 6A6, 6 0 0, 0 1, 12A6, 6 0 0, 0 7, 18C9.61, 18 11.83, 16.33 12.65, 14H17V18H21V14H23V10H12.65Z" class="i pk" transform="translate(95.04320312499999, 48) scale(0.65)"></path><text x="13" y="86" class="tf">category<tspan x="177.51" class="ty">Varchar(20)</tspan></text></svg><svg width="189.85" height="375" x="9.29" y="222.86" id="h3542347218" class="t"><rect height="40" width="189.85" class="th"></rect><text x="13" y="25" class="tht">Campaign</text><rect height="335" width="189.85" class="t-bg"></rect><text x="13" y="61" class="tf pk">cf_id<tspan x="176.85" class="ty">INT</tspan></text><path d="M7,14A2,2 0 0,1 5,12A2,2 0 0,1 7,10A2,2 0 0,1 9,12A2,2 0 0,1 7,14M12.65,10C11.83,7.67 9.61,6 7, 6A6, 6 0 0, 0 1, 12A6, 6 0 0, 0 7, 18C9.61, 18 11.83, 16.33 12.65, 14H17V18H21V14H23V10H12.65Z" class="i pk" transform="translate(137.519921875, 48) scale(0.65)"></path><text x="13" y="86" class="tf fk">contact_id<tspan x="176.85" class="ty">INT</tspan></text><text x="13" y="111" class="tf">description<tspan x="176.85" class="ty">Varchar(250)</tspan></text><text x="13" y="136" class="tf">goal<tspan x="176.85" class="ty">INT</tspan></text><text x="13" y="161" class="tf">pleadged<tspan x="176.85" class="ty">INT</tspan></text><text x="13" y="186" class="tf">outcome<tspan x="176.85" class="ty">Varchar(20)</tspan></text><text x="13" y="211" class="tf">backers_count<tspan x="176.85" class="ty">INT</tspan></text><text x="13" y="236" class="tf">country<tspan x="176.85" class="ty">Varchar(20)</tspan></text><text x="13" y="261" class="tf">currency<tspan x="176.85" class="ty">Varchar(20)</tspan></text><text x="13" y="286" class="tf">launch_date<tspan x="176.85" class="ty">date</tspan></text><text x="13" y="311" class="tf">end_date<tspan x="176.85" class="ty">date</tspan></text><text x="13" y="336" class="tf fk">category_id<tspan x="176.85" class="ty">Varchar(20)</tspan></text><text x="13" y="361" class="tf fk">subcategory_id<tspan x="176.85" class="ty">Varchar(20)</tspan></text></svg><svg width="164.49" height="150" x="495.0014285714282" y="8.567142857142949" id="h3908919658" class="t"><rect height="40" width="164.49" class="th"></rect><text x="13" y="25" class="tht">Contact</text><rect height="110" width="164.49" class="t-bg"></rect><text x="13" y="61" class="tf pk">contact_id<tspan x="151.49" class="ty">INT</tspan></text><path d="M7,14A2,2 0 0,1 5,12A2,2 0 0,1 7,10A2,2 0 0,1 9,12A2,2 0 0,1 7,14M12.65,10C11.83,7.67 9.61,6 7, 6A6, 6 0 0, 0 1, 12A6, 6 0 0, 0 7, 18C9.61, 18 11.83, 16.33 12.65, 14H17V18H21V14H23V10H12.65Z" class="i pk" transform="translate(112.15992187500001, 48) scale(0.65)"></path><text x="13" y="86" class="tf">first_name<tspan x="151.49" class="ty">Varchar(20)</tspan></text><text x="13" y="111" class="tf">last_name<tspan x="151.49" class="ty">Varchar(20)</tspan></text><text x="13" y="136" class="tf">email<tspan x="151.49" class="ty">Varchar(40)</tspan></text></svg><svg width="209.85" height="100" x="507.3171428571429" y="251.96571428571434" id="h2584823334" class="t"><rect height="40" width="209.85" class="th"></rect><text x="13" y="25" class="tht">Subcategory</text><rect height="60" width="209.85" class="t-bg"></rect><text x="13" y="61" class="tf pk">subcategory_id<tspan x="196.85" class="ty">Varchar(20)</tspan></text><path d="M7,14A2,2 0 0,1 5,12A2,2 0 0,1 7,10A2,2 0 0,1 9,12A2,2 0 0,1 7,14M12.65,10C11.83,7.67 9.61,6 7, 6A6, 6 0 0, 0 1, 12A6, 6 0 0, 0 7, 18C9.61, 18 11.83, 16.33 12.65, 14H17V18H21V14H23V10H12.65Z" class="i pk" transform="translate(114.383203125, 48) scale(0.65)"></path><text x="13" y="86" class="tf">subcategory<tspan x="196.85" class="ty">Varchar(20)</tspan></text></svg></g></g><text class="qdbd-link" x="10" y="20">www.quickdatabasediagrams.com</text></svg>